<svg width="127" height="16" viewBox="0 0 127 16" fill="none" xmlns="http://www.w3.org/2000/svg">
<path d="M0.724432 2.26278V1.09091H8.90625V2.26278H5.47585V12H4.15483V2.26278H0.724432ZM13.0185 12.1705C12.2301 12.1705 11.5501 11.9964 10.9783 11.6484C10.4102 11.2969 9.97159 10.8068 9.66264 10.1783C9.35724 9.54616 9.20455 8.81108 9.20455 7.97301C9.20455 7.13494 9.35724 6.39631 9.66264 5.7571C9.97159 5.11435 10.4013 4.61364 10.9517 4.25497C11.5057 3.89276 12.152 3.71165 12.8906 3.71165C13.3168 3.71165 13.7376 3.78267 14.1531 3.92472C14.5685 4.06676 14.9467 4.29759 15.2876 4.61719C15.6286 4.93324 15.9002 5.35227 16.1026 5.87429C16.305 6.39631 16.4062 7.03906 16.4062 7.80256V8.33523H10.0994V7.24858H15.1278C15.1278 6.78693 15.0355 6.375 14.8509 6.01278C14.6697 5.65057 14.4105 5.3647 14.0732 5.15518C13.7393 4.94567 13.3452 4.84091 12.8906 4.84091C12.3899 4.84091 11.9567 4.9652 11.5909 5.21378C11.2287 5.45881 10.9499 5.77841 10.7546 6.17258C10.5593 6.56676 10.4616 6.98935 10.4616 7.44034V8.16477C10.4616 8.78267 10.5682 9.30646 10.7812 9.73615C10.9979 10.1623 11.2979 10.4872 11.6815 10.7109C12.065 10.9311 12.5107 11.0412 13.0185 11.0412C13.3487 11.0412 13.647 10.995 13.9134 10.9027C14.1832 10.8068 14.4158 10.6648 14.6112 10.4766C14.8065 10.2848 14.9574 10.0469 15.0639 9.76278L16.2784 10.1037C16.1506 10.5156 15.9357 10.8778 15.6339 11.1903C15.332 11.4993 14.9592 11.7408 14.5153 11.9148C14.0714 12.0852 13.5724 12.1705 13.0185 12.1705ZM19.0363 3.81818L20.9965 7.16335L22.9568 3.81818H24.4056L21.7636 7.90909L24.4056 12H22.9568L20.9965 8.82528L19.0363 12H17.5874L20.1869 7.90909L17.5874 3.81818H19.0363ZM31.6752 7.33381V8.50568H27.1582V7.33381H31.6752ZM27.4565 3.81818V12H26.1994V3.81818H27.4565ZM32.6341 3.81818V12H31.377V3.81818H32.6341ZM34.9299 12V3.81818H36.187V12H34.9299ZM35.5691 2.45455C35.324 2.45455 35.1127 2.37109 34.9352 2.20419C34.7612 2.03729 34.6742 1.83665 34.6742 1.60227C34.6742 1.3679 34.7612 1.16726 34.9352 1.00035C35.1127 0.833452 35.324 0.75 35.5691 0.75C35.8141 0.75 36.0236 0.833452 36.1976 1.00035C36.3752 1.16726 36.464 1.3679 36.464 1.60227C36.464 1.83665 36.3752 2.03729 36.1976 2.20419C36.0236 2.37109 35.8141 2.45455 35.5691 2.45455ZM38.4894 12V3.81818H39.7465V7.37642H40.5775L43.5178 3.81818H45.1372L41.8346 7.75994L45.1798 12H43.5605L40.8758 8.5483H39.7465V12H38.4894ZM48.9537 12.1918C48.4353 12.1918 47.9648 12.0941 47.5422 11.8988C47.1196 11.6999 46.784 11.4141 46.5354 11.0412C46.2868 10.6648 46.1626 10.2102 46.1626 9.67756C46.1626 9.20881 46.2549 8.82884 46.4395 8.53764C46.6242 8.2429 46.871 8.01207 47.18 7.84517C47.4889 7.67827 47.8298 7.55398 48.2027 7.4723C48.5791 7.38707 48.9573 7.3196 49.3373 7.26989C49.8344 7.20597 50.2375 7.15803 50.5464 7.12607C50.8589 7.09055 51.0862 7.03196 51.2282 6.95028C51.3738 6.86861 51.4466 6.72656 51.4466 6.52415V6.48153C51.4466 5.95597 51.3028 5.54759 51.0152 5.25639C50.7311 4.9652 50.2996 4.8196 49.7208 4.8196C49.1206 4.8196 48.6501 4.95099 48.3092 5.21378C47.9683 5.47656 47.7286 5.7571 47.5901 6.0554L46.3969 5.62926C46.61 5.1321 46.8941 4.74503 47.2492 4.46804C47.6079 4.1875 47.9985 3.99219 48.4211 3.8821C48.8472 3.76847 49.2662 3.71165 49.6782 3.71165C49.941 3.71165 50.2428 3.74361 50.5837 3.80753C50.9282 3.8679 51.2602 3.99396 51.5798 4.18572C51.903 4.37749 52.1711 4.6669 52.3841 5.05398C52.5972 5.44105 52.7037 5.95952 52.7037 6.60938V12H51.4466V10.892H51.3827C51.2975 11.0696 51.1555 11.2596 50.9566 11.462C50.7577 11.6644 50.4932 11.8366 50.1629 11.9787C49.8327 12.1207 49.4296 12.1918 48.9537 12.1918ZM49.1455 11.0625C49.6427 11.0625 50.0617 10.9648 50.4026 10.7695C50.7471 10.5742 51.0063 10.3221 51.1803 10.0131C51.3579 9.70419 51.4466 9.37926 51.4466 9.03835V7.88778C51.3934 7.9517 51.2762 8.0103 51.0951 8.06357C50.9175 8.11328 50.7116 8.15767 50.4772 8.19673C50.2464 8.23224 50.0209 8.2642 49.8007 8.29261C49.5841 8.31747 49.4083 8.33878 49.2733 8.35653C48.9466 8.39915 48.6412 8.46839 48.3572 8.56428C48.0766 8.65661 47.8493 8.79687 47.6753 8.98509C47.5049 9.16974 47.4197 9.42187 47.4197 9.74148C47.4197 10.1783 47.5812 10.5085 47.9044 10.7322C48.2311 10.9524 48.6448 11.0625 49.1455 11.0625ZM58.3434 14.3438V10.8281H59.0252C59.1921 10.6541 59.3359 10.4659 59.4567 10.2635C59.5774 10.0611 59.6822 9.82138 59.771 9.54439C59.8633 9.26385 59.9414 8.92294 60.0053 8.52166C60.0692 8.11683 60.1261 7.62855 60.1758 7.05682L60.4528 3.81818H65.6516V10.8281H66.9087V14.3438H65.6516V12H59.6005V14.3438H58.3434ZM60.4528 10.8281H64.3945V4.99006H61.6246L61.4116 7.05682C61.3228 7.91264 61.2127 8.66016 61.0813 9.29936C60.9499 9.93857 60.7404 10.4482 60.4528 10.8281ZM67.8529 12V10.8281H68.1512C68.3962 10.8281 68.6004 10.7802 68.7638 10.6843C68.9271 10.5849 69.0585 10.4126 69.1579 10.1676C69.2609 9.91903 69.339 9.57457 69.3923 9.13423C69.4491 8.69034 69.49 8.12571 69.5148 7.44034L69.664 3.81818H75.1185V12H73.8614V4.99006H70.8572L70.7293 7.90909C70.7009 8.58026 70.6405 9.17152 70.5482 9.68288C70.4594 10.1907 70.3227 10.6168 70.1381 10.9613C69.9569 11.3058 69.7155 11.565 69.4136 11.739C69.1118 11.913 68.7336 12 68.279 12H67.8529ZM82.3469 12V4.96875H80.1736C79.6835 4.96875 79.2982 5.08239 79.0177 5.30966C78.7371 5.53693 78.5969 5.84943 78.5969 6.24716C78.5969 6.63778 78.7229 6.94496 78.9751 7.16868C79.2307 7.3924 79.5805 7.50426 80.0244 7.50426H82.6665V8.67614H80.0244C79.4704 8.67614 78.9928 8.57848 78.5915 8.38317C78.1903 8.18786 77.8813 7.90909 77.6647 7.54688C77.4481 7.18111 77.3398 6.74787 77.3398 6.24716C77.3398 5.7429 77.4534 5.30966 77.6807 4.94744C77.9079 4.58523 78.2329 4.30646 78.6555 4.11115C79.0816 3.91584 79.5876 3.81818 80.1736 3.81818H83.54V12H82.3469ZM76.8923 12L79.2148 7.9304H80.5784L78.2559 12H76.8923ZM89.193 14.3438V10.8281H89.8748C90.0417 10.6541 90.1855 10.4659 90.3063 10.2635C90.427 10.0611 90.5318 9.82138 90.6206 9.54439C90.7129 9.26385 90.791 8.92294 90.8549 8.52166C90.9189 8.11683 90.9757 7.62855 91.0254 7.05682L91.3024 3.81818H96.5012V10.8281H97.7583V14.3438H96.5012V12H90.4501V14.3438H89.193ZM91.3024 10.8281H95.2441V4.99006H92.4743L92.2612 7.05682C92.1724 7.91264 92.0623 8.66016 91.9309 9.29936C91.7995 9.93857 91.59 10.4482 91.3024 10.8281ZM102.751 12.1705C102.012 12.1705 101.364 11.9947 100.807 11.6431C100.253 11.2915 99.8193 10.7997 99.5068 10.1676C99.1979 9.53551 99.0434 8.79687 99.0434 7.9517C99.0434 7.09943 99.1979 6.35547 99.5068 5.71982C99.8193 5.08416 100.253 4.59055 100.807 4.23899C101.364 3.88743 102.012 3.71165 102.751 3.71165C103.489 3.71165 104.136 3.88743 104.69 4.23899C105.247 4.59055 105.68 5.08416 105.989 5.71982C106.302 6.35547 106.458 7.09943 106.458 7.9517C106.458 8.79687 106.302 9.53551 105.989 10.1676C105.68 10.7997 105.247 11.2915 104.69 11.6431C104.136 11.9947 103.489 12.1705 102.751 12.1705ZM102.751 11.0412C103.312 11.0412 103.774 10.8974 104.136 10.6097C104.498 10.3221 104.766 9.94389 104.94 9.47514C105.114 9.00639 105.201 8.49858 105.201 7.9517C105.201 7.40483 105.114 6.89524 104.94 6.42294C104.766 5.95064 104.498 5.56889 104.136 5.2777C103.774 4.98651 103.312 4.84091 102.751 4.84091C102.19 4.84091 101.728 4.98651 101.366 5.2777C101.004 5.56889 100.736 5.95064 100.562 6.42294C100.388 6.89524 100.301 7.40483 100.301 7.9517C100.301 8.49858 100.388 9.00639 100.562 9.47514C100.736 9.94389 101.004 10.3221 101.366 10.6097C101.728 10.8974 102.19 11.0412 102.751 11.0412ZM112.852 10.2955L115.707 3.81818H116.9L113.363 12H112.34L108.867 3.81818H110.039L112.852 10.2955ZM109.634 3.81818V12H108.377V3.81818H109.634ZM116.069 12V3.81818H117.326V12H116.069ZM120.144 15.0682C119.931 15.0682 119.741 15.0504 119.574 15.0149C119.407 14.983 119.292 14.951 119.228 14.919L119.547 13.8111C119.853 13.8892 120.123 13.9176 120.357 13.8963C120.591 13.875 120.799 13.7702 120.98 13.582C121.165 13.3974 121.333 13.0973 121.486 12.6818L121.721 12.0426L118.695 3.81818H120.059L122.317 10.3381H122.402L124.661 3.81818H126.025L122.551 13.1932C122.395 13.6158 122.202 13.9656 121.971 14.2425C121.74 14.5231 121.472 14.7308 121.167 14.8658C120.865 15.0007 120.524 15.0682 120.144 15.0682Z" fill="black"/>
</svg>
